<?xml version="1.0" encoding="utf-8"?>
<svg width="17px" height="17px" viewBox="0 0 17 17" version="1.1" xmlns:xlink="http://www.w3.org/1999/xlink" xmlns="http://www.w3.org/2000/svg">
  <defs>
    <rect width="17" height="17" id="artboard_1" />
    <clipPath id="clip_1">
      <use xlink:href="#artboard_1" clip-rule="evenodd" />
    </clipPath>
  </defs>
  <g id="INSTAGRAM" clip-path="url(#clip_1)">
    <path d="M9.8224 0L3.482 0C1.5668 0 0 1.5672 0 3.4824L0 9.8228C0 11.738 1.5668 13.3048 3.482 13.3048L9.8224 13.3048C11.7376 13.3048 13.3048 11.738 13.3048 9.8228L13.3048 3.4824C13.3048 1.5672 11.7376 0 9.8224 0M9.8224 0.8C11.3016 0.8 12.5048 2.0036 12.5048 3.4824L12.5048 9.8228C12.5048 11.3016 11.3016 12.5048 9.8224 12.5048L3.482 12.5048C2.0032 12.5048 0.8 11.3016 0.8 9.8228L0.8 3.4824C0.8 2.0036 2.0032 0.8 3.482 0.8L9.8224 0.8" transform="translate(2 2)" id="Fill-1" fill="#003B5C" fill-rule="evenodd" stroke="none" />
    <path d="M3.2764 0C1.4672 0 0 1.4668 0 3.276C0 5.086 1.4672 6.5528 3.2764 6.5528C5.086 6.5528 6.5528 5.086 6.5528 3.276C6.5528 1.4668 5.086 0 3.2764 0M3.2764 0.8C4.642 0.8 5.7528 1.9108 5.7528 3.276C5.7528 4.6416 4.642 5.7528 3.2764 5.7528C1.9108 5.7528 0.8 4.6416 0.8 3.276C0.8 1.9108 1.9108 0.8 3.2764 0.8" transform="translate(5.37592 5.3762)" id="Fill-4" fill="#003B5C" fill-rule="evenodd" stroke="none" />
    <path d="M1.1 0C0.4924 0 0 0.4924 0 1.1004C0 1.708 0.4924 2.2004 1.1 2.2004C1.7076 2.2004 2.2 1.708 2.2 1.1004C2.2 0.4924 1.7076 0 1.1 0M1.1 0.8C1.2656 0.8 1.4 0.9348 1.4 1.1004C1.4 1.266 1.2656 1.4004 1.1 1.4004C0.9344 1.4004 0.8 1.266 0.8 1.1004C0.8 0.9348 0.9344 0.8 1.1 0.8" transform="translate(11.26108 3.84336)" id="Fill-6" fill="#003B5C" fill-rule="evenodd" stroke="none" />
  </g>
</svg>