<?xml version="1.0" encoding="utf-8"?>
<svg width="221px" height="64px" viewBox="0 0 221 64" version="1.1" xmlns:xlink="http://www.w3.org/1999/xlink" xmlns="http://www.w3.org/2000/svg">
  <path d="M46.2201 5.8956C46.0512 6.87828 45.3503 9.256 41.3131 9.256C38.5332 9.256 36.3454 7.70323 36.3454 4.4885C36.3454 1.91655 37.9532 0 41.4459 0C45.3744 0 45.9544 2.55987 46.0872 3.03257L44.3712 3.03257C44.2744 2.72969 43.5977 1.4798 41.5427 1.4798C39.1135 1.4798 38.0981 2.85095 38.0981 4.68273C38.0981 6.70873 39.5604 7.77593 41.4459 7.77593C43.4525 7.77593 44.3349 6.57513 44.5043 5.8956L46.2201 5.8956ZM1.71603 0.218375L0 0.218375L2.58634 9.03762L4.26629 9.03762L5.94677 2.77798L5.97056 2.77798L7.63875 9.03762L9.28261 9.03762L11.8449 0.218375L10.165 0.218375L8.48501 6.27198L8.46068 6.27198L6.75641 0.218375L5.11255 0.218375L3.43233 6.28406L3.40828 6.28406L1.71603 0.218375ZM19.702 0.218375L17.7436 0.218375L13.4166 9.03762L15.2417 9.03762L16.1724 7.01162L21.2368 7.01162L22.1553 9.03762L23.9683 9.03762L19.702 0.218375ZM24.4398 1.69844L28.3683 1.69844L28.3683 9.03762L30.0843 9.03762L30.0843 1.69844L34.013 1.69844L34.013 0.218375L24.4398 0.218375L24.4398 1.69844ZM51.1399 0.218375L49.4236 0.218375L49.4236 9.03762L51.1399 9.03762L51.1399 5.24074L57.0383 5.24074L57.0383 9.03762L58.7546 9.03762L58.7546 0.218375L57.0383 0.218375L57.0383 3.71211L51.1399 3.71211L51.1399 0.218375ZM68.6902 9.03762L70.4065 9.03762L70.4065 0.218375L68.6902 0.218375L68.6902 9.03762ZM73.4884 1.69844L77.4169 1.69844L77.4169 9.03762L79.1332 9.03762L79.1332 1.69844L83.0616 1.69844L83.0616 0.218375L73.4884 0.218375L73.4884 1.69844ZM92.0903 0.218375L100.176 0.218375L100.176 1.69844L93.8066 1.69844L93.8066 3.7486L99.2818 3.7486L99.2818 5.22867L93.8066 5.22867L93.8066 9.03762L92.0903 9.03762L92.0903 0.218375ZM104.903 0.218375L103.186 0.218375L103.186 9.03762L111.272 9.03762L111.272 7.50927L104.903 7.50927L104.903 0.218375ZM110.741 0.218375L115.032 5.50767L115.032 9.03762L116.748 9.03762L116.748 5.50767L121.039 0.218375L118.924 0.218375L115.89 3.9549L112.844 0.218375L110.741 0.218375ZM18.7227 1.60133L20.5598 5.53182L16.8853 5.53182L18.7227 1.60133Z" transform="translate(45.332123 54.74402)" id="WATCH-IT-FLY" fill="#E74832" fill-rule="evenodd" stroke="none" />
  <path d="M160.343 34.4638L165.36 34.4638L165.36 1.26915L160.343 1.26915L160.343 34.4638ZM159.726 0.649172L159.726 35.0833L161.922 37.2874L168.174 37.2874L168.174 2.85358L165.978 0.649172L159.726 0.649172ZM184.224 9.79625C184.278 10.0407 184.306 10.2883 184.306 10.5364C184.306 12.3655 182.568 13.911 181.66 13.9513L179.359 13.9513L179.359 9.27768L183.051 9.27768L183.111 9.27741C183.339 9.2817 183.566 9.3088 183.791 9.35977C184.006 9.40806 184.175 9.58002 184.224 9.79625L184.224 9.79625ZM180.855 6.45302L176.546 6.45382L176.546 14.571L181.356 14.571L181.356 14.5766L181.648 14.5718C182.302 14.5605 183.119 14.0881 183.781 13.3388C184.208 12.8557 184.923 11.8494 184.923 10.5364C184.923 8.28479 183.098 6.45302 180.855 6.45302L180.855 6.45302ZM144.981 34.4635L144.981 34.7527L144.975 34.7527L144.975 34.4635L134.861 34.4635L134.861 1.26915L144.187 1.26915L144.296 1.26862C149.255 1.32737 153.272 5.39521 153.272 10.3865C153.272 12.4997 152.528 14.5651 151.176 16.2026L150.989 16.4285L151.217 16.6126C153.604 18.5331 154.973 21.3844 154.973 24.4349C154.973 29.9646 150.491 34.4635 144.981 34.4635L144.981 34.4635ZM154.569 19.0193C154.502 18.9508 154.202 18.6496 154.128 18.5793C154.126 18.5554 154.125 18.5364 154.124 18.5173C154.122 18.4983 154.121 18.4792 154.119 18.4553C155.39 16.7666 156.086 14.6987 156.086 12.5909C156.086 9.94085 155.038 7.46039 153.142 5.61359C153.074 5.5433 153.005 5.47409 152.942 5.41346C152.874 5.3429 152.806 5.27395 152.743 5.21332C152.675 5.14304 152.606 5.07382 152.543 5.01292C152.475 4.94263 152.406 4.87342 152.344 4.81252C152.276 4.74223 152.207 4.67302 152.144 4.61212C152.076 4.54156 152.007 4.47235 151.945 4.41172C151.877 4.34143 151.808 4.27195 151.745 4.21132C151.677 4.14103 151.608 4.07182 151.545 4.01092C151.477 3.94063 151.408 3.87141 151.346 3.81025C151.278 3.74023 151.209 3.67101 151.146 3.60958C149.299 1.70027 146.827 0.648367 144.187 0.648367L134.256 0.649172C134.249 0.649172 134.243 0.655074 134.243 0.661781L134.243 35.0782C134.243 35.0814 134.245 35.0843 134.247 35.0867L136.436 37.2839C136.438 37.2863 136.441 37.2874 136.445 37.2874L147 37.2874C153.021 37.2874 157.969 32.3418 157.782 26.3018C157.696 23.5413 156.563 20.9664 154.569 19.0193L154.569 19.0193ZM211.177 12.5506C212.08 14.1694 212.551 15.9808 212.551 17.8662C212.551 22.9256 209.063 27.3333 204.196 28.5057C204.185 28.5084 204.174 28.4998 204.174 28.4883L204.174 9.15132C204.174 9.14113 204.183 9.13308 204.193 9.13362C205.955 9.18834 207.647 9.66292 209.166 10.5222C210.008 10.9984 210.704 11.7042 211.177 12.5506L211.177 12.5506ZM201.649 6.30413L201.361 6.30413L201.361 29.4283L201.649 29.4283C208.001 29.428 213.169 24.2415 213.169 17.8662C213.169 11.4909 208.001 6.30413 201.649 6.30413L201.649 6.30413ZM20.2118 25.9466C19.5625 31.4033 14.7798 35.3547 9.32191 34.9478C9.17115 34.9362 9.02013 34.9212 8.86857 34.9032C5.35873 34.4829 2.2982 32.2444 0.814715 29.0339L5.19969 27.1429C6.01066 28.7895 7.60828 29.9316 9.43417 30.1505C10.8773 30.3219 12.2998 29.9203 13.4398 29.0208C14.5809 28.1199 15.3042 26.8263 15.4764 25.3792C15.8452 22.2791 13.8632 19.7814 10.6565 19.3058C5.42127 18.5289 1.93682 14.0505 2.55079 8.88922C2.84616 6.40607 4.09175 4.18395 6.05824 2.63199C8.02392 1.08056 10.4673 0.390556 12.9379 0.688072C15.5865 1.00517 17.97 2.45332 19.5205 4.6757L15.5314 7.30667C14.7595 6.26549 13.6229 5.59052 12.3725 5.44055C11.1604 5.29488 9.96261 5.63344 9.00115 6.39292C8.03969 7.15214 7.4308 8.24026 7.28619 9.45689C6.97586 12.0667 8.64832 14.1694 11.3536 14.5707C17.074 15.4193 20.8821 20.3099 20.2118 25.9466L20.2118 25.9466ZM17.8374 17.14C16.1441 15.4273 13.9335 14.3269 11.444 13.9577C11.1467 13.9135 10.8594 13.8453 10.5849 13.7533C10.4047 13.6927 10.2665 13.547 10.2141 13.3635C10.0677 12.8503 10.0276 12.3041 10.0952 11.7345C10.2206 10.6824 10.7474 9.74126 11.5789 9.08398C12.4108 8.42698 13.4465 8.13483 14.4954 8.26011C14.802 8.29687 15.1056 8.37198 15.3978 8.48278C15.8311 8.64723 16.2144 8.92195 16.5306 9.26158L17.5575 10.3645L22.5755 7.05503L22.3945 6.77897C21.9756 6.13887 21.4822 5.5433 20.9249 5.00514C20.8602 4.93888 20.7953 4.87288 20.7351 4.81494L20.7164 4.79562C20.6544 4.73257 20.5927 4.66926 20.5253 4.60407C20.4609 4.53808 20.3959 4.47208 20.331 4.40957C20.2644 4.34116 20.1979 4.27329 20.1364 4.214C20.0685 4.14425 20.0003 4.07477 19.9367 4.0136L19.9121 3.98838C19.852 3.92695 19.7918 3.86551 19.737 3.8132L19.7181 3.79415C19.6563 3.73057 19.5943 3.66753 19.528 3.60341C19.4628 3.53661 19.3976 3.47008 19.3377 3.4124L19.3187 3.39335C19.257 3.32977 19.195 3.26672 19.138 3.212C19.0699 3.14225 19.002 3.07249 18.9384 3.01186C17.345 1.38344 15.2398 0.339852 13.0114 0.0726506C10.3772 -0.246059 7.77186 0.49089 5.67654 2.14453C3.58041 3.79898 2.25276 6.16811 1.93789 8.81571C1.561 11.9827 2.63232 15.0322 4.87038 17.1754L6.86654 19.1791C8.4254 20.7638 10.4641 21.7822 12.7623 22.1232C13.2995 22.2029 13.8063 22.3469 14.2735 22.553C14.4112 22.6133 14.5141 22.7316 14.5697 22.8717C14.8637 23.6143 14.9653 24.4483 14.8635 25.3057C14.7106 26.5889 14.0696 27.7349 13.0579 28.5339C12.0478 29.3314 10.7861 29.6869 9.50687 29.5353C8.96721 29.4704 8.45213 29.292 7.94641 29.0651C6.67489 28.4944 5.5159 26.3319 5.5159 26.3319L0 28.7109L0.130173 29.0143C0.704055 30.3549 1.53187 31.5503 2.58554 32.562C2.58554 32.562 4.53332 34.5191 4.5817 34.5655C6.30655 36.3133 8.58284 37.4344 10.9914 37.7225C11.1523 37.7421 11.3122 37.7574 11.4723 37.7695C11.7484 37.7901 12.0219 37.8003 12.2945 37.8003C17.7331 37.8001 22.3656 33.7349 23.021 28.224C23.4297 24.7866 22.267 21.4761 19.8306 19.1408L17.8374 17.14ZM53.4977 34.4635L37.3574 34.4635L37.3574 1.26915L42.3742 1.26915L42.3742 29.4283L53.4977 29.4283L53.4977 34.4635ZM45.1875 28.8086L45.1875 2.85358L42.9917 0.649172L36.7399 0.649172L36.7399 35.0833L38.936 37.2874L56.3115 37.2874L56.3115 31.0127L54.1152 28.8086L45.1875 28.8086ZM190.973 34.4635L185.956 34.4635C185.902 25.7157 183.384 20.7451 181.791 19.6596L181.718 19.61L176.546 19.606L176.546 34.6135L171.529 34.6135L171.529 1.41858L180.855 1.41858L180.951 1.41805C185.916 1.47036 189.94 5.54062 189.94 10.5364C189.94 13.0397 188.793 15.6009 186.872 17.3879L186.686 17.5609L186.833 17.7683C189.429 21.4034 190.933 27.4761 190.973 34.4635L190.973 34.4635ZM192.754 12.7406C192.754 10.09 191.706 7.60982 189.81 5.76382C189.742 5.69327 189.673 5.62405 189.61 5.56315C189.542 5.49286 189.474 5.42365 189.411 5.36275C189.343 5.29273 189.274 5.22379 189.211 5.16235C189.143 5.09233 189.074 5.02312 189.011 4.96168C188.943 4.89166 188.875 4.82245 188.812 4.76155C188.744 4.69099 188.675 4.62205 188.612 4.56088C188.544 4.49059 188.475 4.42165 188.412 4.36075C188.344 4.29019 188.276 4.22151 188.213 4.16088C188.145 4.09059 188.076 4.02138 188.013 3.95995C187.945 3.88939 187.876 3.82071 187.813 3.75981C185.967 1.84997 183.495 0.798064 180.855 0.798064L170.912 0.799137L170.912 35.2329L173.108 37.4374L179.359 37.4374L179.359 22.4304L182.715 22.4304C182.939 22.4304 183.141 22.561 183.233 22.7657C184.016 24.5143 185.34 28.4107 185.34 34.7525L185.34 35.0833L187.536 37.2874L193.787 37.2874L193.787 36.9569C193.787 29.8696 192.299 23.6588 189.696 19.8471C191.615 17.9564 192.754 15.3214 192.754 12.7406L192.754 12.7406ZM201.649 34.4635L196.344 34.4635L196.344 1.26915L201.648 1.26889C210.767 1.26889 218.185 8.71457 218.185 17.8662C218.185 27.0179 210.767 34.4635 201.649 34.4635L201.649 34.4635ZM220.96 18.8932C220.678 14.6952 218.895 10.7942 215.867 7.80405L213.872 5.80218C210.616 2.4788 206.275 0.649172 201.649 0.649172L195.744 0.649172C195.734 0.649172 195.726 0.656952 195.726 0.666878L195.726 35.076C195.726 35.0806 195.728 35.0849 195.731 35.0884L197.917 37.2823C197.921 37.2858 197.925 37.2874 197.93 37.2874L203.583 37.2874C213.677 37.2874 221.637 29.0015 220.96 18.8932L220.96 18.8932ZM117.505 34.4635L112.488 34.4635C112.434 25.7157 109.916 20.7448 108.323 19.6596L108.25 19.61L108.143 19.6103L103.078 19.606L103.078 34.6135L98.0611 34.6135L98.0611 1.41858L107.387 1.41858L107.483 1.41805C112.449 1.47036 116.472 5.54062 116.472 10.5364C116.472 13.0397 115.325 15.6009 113.404 17.3879L113.218 17.5609L113.366 17.7683C115.962 21.4034 117.465 27.4761 117.505 34.4635L117.505 34.4635ZM119.286 12.7406C119.286 10.0903 118.238 7.60982 116.342 5.76355C116.275 5.69327 116.206 5.62432 116.143 5.56288C116.075 5.49286 116.006 5.42392 115.943 5.36248C115.875 5.29246 115.806 5.22352 115.743 5.16235C115.676 5.09206 115.607 5.02285 115.544 4.96195C115.476 4.89193 115.407 4.82272 115.344 4.76128C115.276 4.69099 115.208 4.62231 115.144 4.56061C115.076 4.49059 115.007 4.42165 114.945 4.36128C114.877 4.29046 114.808 4.22151 114.745 4.16061C114.677 4.09033 114.608 4.02111 114.545 3.96021C114.478 3.88993 114.409 3.82071 114.346 3.75954C112.499 1.84997 110.028 0.798064 107.387 0.798064L97.4437 0.799137L97.4437 35.2329L99.6398 37.4374L105.892 37.4374L105.892 22.4304L109.245 22.4304C109.471 22.4304 109.674 22.5618 109.766 22.7679C110.549 24.5178 111.872 28.4134 111.872 34.7525L111.872 35.0833L114.068 37.2874L120.32 37.2874L120.32 36.9569C120.32 29.8696 118.832 23.6588 116.229 19.8471C118.148 17.9564 119.286 15.3214 119.286 12.7406L119.286 12.7406ZM25.5181 34.4638L30.535 34.4638L30.535 1.26915L25.5181 1.26915L25.5181 34.4638ZM24.9007 0.649172L24.9007 35.0833L27.097 37.2874L33.3488 37.2874L33.3488 2.85358L31.1527 0.649172L24.9007 0.649172ZM110.76 9.81369C110.812 10.0525 110.838 10.2942 110.838 10.5364C110.838 12.3655 109.101 13.911 108.192 13.9513L105.892 13.9513L105.892 9.27768L109.583 9.27768L109.643 9.27741C109.865 9.28143 110.086 9.30746 110.306 9.35575C110.532 9.40564 110.711 9.58673 110.76 9.81369L110.76 9.81369ZM107.388 6.45302L103.078 6.45382L103.078 14.571L107.888 14.571L107.888 14.5766L108.18 14.5718C108.834 14.5605 109.651 14.0881 110.313 13.3388C110.74 12.8557 111.455 11.8496 111.455 10.5364C111.455 8.28479 109.63 6.45302 107.388 6.45302L107.388 6.45302ZM149.059 22.9092C149.245 23.3999 149.339 23.9118 149.339 24.4349C149.339 26.8464 147.384 28.8086 144.975 28.8086L142.704 28.8086C142.697 28.8086 142.691 28.8029 142.691 28.7962L142.691 22.2927C142.691 22.2858 142.697 22.2804 142.704 22.2804L147.171 22.2804C147.703 22.2804 148.222 22.3767 148.719 22.568C148.876 22.6283 148.999 22.7518 149.059 22.9092L149.059 22.9092ZM144.975 19.4565L139.878 19.4565L139.878 29.4283L144.981 29.4283C147.724 29.4283 149.956 27.1885 149.956 24.4349C149.956 21.6899 147.722 19.4565 144.975 19.4565L144.975 19.4565ZM60.9459 35.1216L50.8729 1.26889L56.0557 1.26889L60.9448 19.5738L65.8315 1.26889L71.0144 1.26889L60.9459 35.1216ZM65.3576 0.649172L61.7483 14.1702L58.7255 2.85358L56.5291 0.649172L50.0437 0.649172L60.9462 37.2877L63.1423 39.4913L74.0391 2.85358L71.8427 0.649172L65.3576 0.649172ZM91.8925 6.30413L80.7687 6.30413L80.7687 14.4253L87.5399 14.4253L87.5399 19.4606L80.7687 19.4606L80.7687 29.4283L91.8925 29.4283L91.8925 34.4635L75.7519 34.4635L75.7519 1.26915L91.8925 1.26915L91.8925 6.30413ZM75.1344 0.649172L75.1344 35.0833L77.3305 37.2874L94.706 37.2874L94.706 31.0127L92.5099 28.8086L83.5823 28.8086L83.5823 22.2844L90.3534 22.2844L90.3534 16.01L88.157 13.8056L83.5823 13.8056L83.5823 9.12825L94.706 9.12825L94.706 2.85358L92.5099 0.649172L75.1344 0.649172ZM144.714 13.8013L142.704 13.8013C142.697 13.8013 142.691 13.796 142.691 13.7892L142.691 9.14059C142.691 9.13388 142.697 9.12825 142.704 9.12825L146.456 9.12825C146.677 9.13281 146.897 9.15991 147.115 9.20819C147.335 9.25756 147.509 9.43435 147.558 9.65594C147.611 9.89712 147.638 10.1415 147.638 10.3867C147.638 12.0806 146.383 13.5443 144.716 13.8011C144.715 13.8013 144.714 13.8013 144.714 13.8013L144.714 13.8013ZM144.781 14.4181C146.762 14.1275 148.255 12.3945 148.255 10.3865C148.255 8.1351 146.43 6.30359 144.187 6.30332L139.878 6.30413L139.878 14.421L144.76 14.421L144.781 14.4181Z" id="SILVER-BIRD" fill="#003B5C" fill-rule="evenodd" stroke="none" />
</svg>